<?xml version="1.0" standalone="no"?>
<!DOCTYPE svg PUBLIC "-//W3C//DTD SVG 20010904//EN"
 "http://www.w3.org/TR/2001/REC-SVG-20010904/DTD/svg10.dtd">
<svg version="1.0" xmlns="http://www.w3.org/2000/svg"
 width="700.000000pt" height="700.000000pt" viewBox="0 0 700.000000 700.000000"
 preserveAspectRatio="xMidYMid meet">
<metadata>
Created by potrace 1.14, written by Peter Selinger 2001-2017
</metadata>
<g transform="translate(0.000000,700.000000) scale(0.100000,-0.100000)"
fill="#000000" stroke="none">
<path d="M879 6120 c-4 -13 -4 -4970 0 -4970 2 0 204 200 449 445 244 245 450
445 456 446 6 0 985 1 2176 2 l2165 2 0 2040 0 2040 -2622 0 c-1443 0 -2624
-2 -2624 -5z m4952 -320 c1 -45 1 -3441 0 -3456 -1 -7 -623 -10 -2081 -10
-1145 1 -2087 -1 -2095 -4 -8 -3 -121 -111 -250 -240 -217 -216 -235 -232
-236 -205 0 17 -1 909 -1 1984 -1 1787 0 1955 15 1960 9 3 1058 6 2332 6
l2315 0 1 -35z"/>
<path d="M3375 5392 c-3 -3 -5 -594 -5 -1314 l0 -1308 130 0 130 0 -2 1313 -3
1312 -122 1 c-68 1 -125 -1 -128 -4z"/>
<path d="M2618 4812 l-48 -3 0 -728 0 -728 128 1 127 1 1 730 2 730 -82 0
c-44 0 -102 -1 -128 -3z"/>
<path d="M4188 4812 c-14 -3 -16 -72 -14 -730 l1 -727 128 0 127 -1 0 728 c0
575 -3 728 -12 729 -44 3 -217 3 -230 1z"/>
<path d="M1840 4085 c0 -109 3 -145 13 -146 15 -1 230 -1 238 0 3 1 6 66 7
146 l1 145 -129 0 -130 0 0 -145z"/>
<path d="M4902 4083 l-1 -148 112 2 c62 0 120 2 130 2 15 1 17 15 17 146 l0
145 -129 0 -129 0 0 -147z"/>
</g>
</svg>
